#!OML:ASF F:\VICON\USERDATA\INSTALL\rory3\rory3.ASF
:FULLY-SPECIFIED
:DEGREES
4913
root -12.4432 17.7438 7.68597 -1622.06 29.3173 535.61
lowerback 12.7069 0.00329469 -4.81225
upperback 1.23881 -0.45924 1.56455
thorax -5.77092 -0.043123 4.45447
lowerneck -18.1587 -6.82669 -10.7797
upperneck 26.5418 -8.5587 9.82305
head 12.8012 -3.36067 4.23971
rclavicle 5.57591e-014 3.18055e-015
rhumerus -33.099 -11.0224 -78.3321
rradius 30.1543
rwrist 4.06264
rhand -16.6403 8.64735
rfingers 7.12502
rthumb 9.58237 -21.1147
lclavicle 5.57591e-014 3.18055e-015
lhumerus -26.5715 -0.924397 80.1799
lradius 34.7003
lwrist -0.530621
lhand -16.5582 26.4674
lfingers 7.12502
lthumb 9.66162 56.2258
rfemur -27.7395 -6.4134 16.0174
rtibia 25.0026
rfoot -2.34644 -12.1182
rtoes 8.95865
lfemur 13.5321 -6.57171 -23.5603
ltibia 3.18055e-015
lfoot -7.36473 3.90095
ltoes -16.5874
4914
root -12.3766 17.7387 7.61011 -1622.02 29.6386 535.699
lowerback 12.6363 -0.0604268 -4.72832
upperback 1.25996 -0.525149 1.60968
thorax -5.70204 -0.0792805 4.4645
lowerneck -18.2429 -6.87509 -10.8165
upperneck 26.5887 -8.62157 9.83838
head 12.8489 -3.38908 4.24076
rclavicle -7.45443e-015 -1.59028e-015
rhumerus -33.3562 -11.0212 -78.2115
rradius 29.9938
rwrist 4.12533
rhand -16.5885 8.06765
rfingers 7.12502
rthumb 9.63238 -21.6921
lclavicle -7.45443e-015 -1.59028e-015
lhumerus -26.2902 -1.1629 80.2067
lradius 34.9028
lwrist -0.706837
lhand -16.2284 26.5696
lfingers 7.12502
lthumb 9.97977 56.313
rfemur -27.5119 -6.39578 16.0627
rtibia 24.4467
rfoot -2.31514 -12.1107
rtoes 8.9157
lfemur 13.9636 -6.80421 -23.5195
ltibia -1.59028e-015
lfoot -7.4805 4.3292
ltoes -17.1109
4915
root -12.3087 17.737 7.53785 -1621.92 29.9966 535.814
lowerback 12.5142 -0.128602 -4.66257
upperback 1.28699 -0.596616 1.66985
thorax -5.59743 -0.118832 4.50063
lowerneck -18.333 -6.91719 -10.7427
upperneck 26.5356 -8.67549 9.72802
head 12.8425 -3.42296 4.1699
rclavicle 5.10877e-014 -1.74931e-014
rhumerus -33.5882 -11.0861 -78.0641
rradius 29.8023
rwrist 4.37246
rhand -16.5278 7.97687
rfingers 7.12502
rthumb 9.69095 -21.7802
lclavicle 5.10877e-014 -1.74931e-014
lhumerus -26.021 -1.29679 80.1889
lradius 35.1802
lwrist -1.00929
lhand -15.7336 27.0444
lfingers 7.12502
lthumb 10.4571 56.7643
rfemur -27.3347 -6.4188 16.1623
rtibia 24.0278
rfoot -2.22155 -11.8658
rtoes 9.03027
lfemur 14.3217 -7.00788 -23.4244
ltibia -7.95139e-015
lfoot -7.51698 4.71087
ltoes -17.4281
4916
root -12.2406 17.7332 7.47208 -1621.77 30.4611 535.991
lowerback 12.4039 -0.174773 -4.54521
upperback 1.34771 -0.630989 1.7187
thorax -5.46852 -0.141997 4.48839
lowerneck -18.4884 -6.93181 -10.6706
upperneck 26.4527 -8.7074 9.69325
head 12.8388 -3.43738 4.13132
rclavicle -2.88238e-014 3.49861e-014
rhumerus -33.666 -11.2702 -77.985
rradius 29.5681
rwrist 4.68927
rhand -16.4022 8.12062
rfingers 7.12502
rthumb 9.81211 -21.6308
lclavicle -2.88238e-014 3.49861e-014
lhumerus -25.7358 -1.32787 80.1243
lradius 35.4848
lwrist -1.36299
lhand -15.7372 26.7929
lfingers 7.12502
lthumb 10.4537 56.513
rfemur -27.1988 -6.1099 16.3124
rtibia 23.7519
rfoot -1.91944 -11.7233
rtoes 8.36396
lfemur 14.6328 -7.11006 -23.2568
ltibia 5.40694e-014
lfoot -7.50064 5.08978
ltoes -18.013
4917
root -12.1721 17.7304 7.40398 -1621.59 30.8358 536.283
lowerback 12.3766 -0.241305 -4.21992
upperback 1.35659 -0.671571 1.74264
thorax -5.44309 -0.169486 4.33436
lowerneck -18.581 -6.94237 -10.6279
upperneck 26.4531 -8.73318 9.68435
head 12.8584 -3.44572 4.11382
rclavicle 2.46493e-014 2.38542e-014
rhumerus -33.8417 -11.3832 -77.9874
rradius 29.3272
rwrist 4.78947
rhand -16.401 7.97884
rfingers 7.12502
rthumb 9.81328 -21.7725
lclavicle 2.46493e-014 2.38542e-014
lhumerus -25.6213 -1.51372 80.0742
lradius 35.8971
lwrist -1.58574
lhand -16.0404 26.4057
lfingers 7.12502
lthumb 10.1611 56.1403
rfemur -26.9689 -6.0549 16.6429
rtibia 23.5948
rfoot -1.38133 -11.4688
rtoes 8.01336
lfemur 14.9961 -7.30175 -23.0031
ltibia -2.54444e-014
lfoot -7.42767 5.42741
ltoes -19.0451
4918
root -12.1024 17.7224 7.33047 -1621.49 31.2053 536.489
lowerback 12.3558 -0.317368 -3.94952
upperback 1.33923 -0.734211 1.76857
thorax -5.44655 -0.205832 4.218
lowerneck -18.6287 -6.95408 -10.6865
upperneck 26.518 -8.73776 9.70036
head 12.8996 -3.45043 4.13061
rclavicle 2.96189e-014 -1.90833e-014
rhumerus -34.0967 -11.3431 -77.9374
rradius 29.0368
rwrist 4.78507
rhand -16.4872 7.74001
rfingers 7.12502
rthumb 9.73013 -22.0152
lclavicle 2.96189e-014 -1.90833e-014
lhumerus -25.5997 -1.52162 80.0611
lradius 36.3532
lwrist -1.55112
lhand -15.9413 26.425
lfingers 7.12502
lthumb 10.2568 56.1549
rfemur -26.7211 -6.48758 17.0298
rtibia 23.5766
rfoot -0.959559 -10.9878
rtoes 8.53366
lfemur 15.4095 -7.4901 -22.8531
ltibia -2.22639e-014
lfoot -7.33678 5.74549
ltoes -19.5319
4919
root -12.0268 17.7075 7.26033 -1621.43 31.7582 536.606
lowerback 12.3213 -0.302294 -3.88855
upperback 1.3378 -0.702254 1.81779
thorax -5.43233 -0.191471 4.22957
lowerneck -18.6153 -6.94502 -10.7342
upperneck 26.4238 -8.72347 9.73054
head 12.8608 -3.45043 4.14952
rclavicle 4.03533e-014 2.38542e-015
rhumerus -34.3103 -11.5514 -77.7481
rradius 28.7262
rwrist 5.15471
rhand -16.5393 7.49104
rfingers 7.12502
rthumb 9.67986 -22.2665
lclavicle 4.03533e-014 2.38542e-015
lhumerus -25.5713 -1.50899 80.0945
lradius 36.8287
lwrist -1.41148
lhand -15.7884 26.6101
lfingers 7.12502
lthumb 10.4043 56.3327
rfemur -26.5381 -6.8133 17.4193
rtibia 23.701
rfoot -0.558991 -10.7693
rtoes 9.44615
lfemur 15.8385 -7.49569 -22.7608
ltibia -6.36111e-015
lfoot -7.25359 6.08314
ltoes -19.8252
4920
root -11.9462 17.6987 7.19235 -1621.38 32.33 536.667
lowerback 12.287 -0.237088 -3.94757
upperback 1.33192 -0.619102 1.88906
thorax -5.42648 -0.14887 4.32465
lowerneck -18.559 -6.95519 -10.8413
upperneck 26.2755 -8.73006 9.79527
head 12.7993 -3.46358 4.18712
rclavicle 1.07543e-013 2.70347e-014
rhumerus -34.4809 -11.9062 -77.4624
rradius 28.3776
rwrist 5.75265
rhand -16.6024 7.3731
rfingers 7.12502
rthumb 9.61894 -22.3873
lclavicle 1.07543e-013 2.70347e-014
lhumerus -25.6281 -1.5684 80.2174
lradius 37.3928
lwrist -1.42647
lhand -15.9235 26.7395
lfingers 7.12502
lthumb 10.274 56.4686
rfemur -26.3487 -7.10032 17.7934
rtibia 23.9091
rfoot -0.0903077 -10.8352
rtoes 10.5736
lfemur 16.2686 -7.48309 -22.7075
ltibia -4.13472e-014
lfoot -7.10351 6.37625
ltoes -20.8
4921
root -11.865 17.6991 7.12543 -1621.32 32.798 536.763
lowerback 12.2403 -0.229034 -3.86287
upperback 1.34974 -0.594982 1.89203
thorax -5.38506 -0.140207 4.27435
lowerneck -18.5973 -6.97328 -10.871
upperneck 26.1939 -8.76664 9.85801
head 12.784 -3.47812 4.20635
rclavicle -1.09332e-013 7.95139e-015
rhumerus -34.5616 -12.3648 -77.2638
rradius 27.9084
rwrist 6.36529
rhand -16.7091 7.5187
rfingers 7.12502
rthumb 9.51606 -22.2464
lclavicle -1.09332e-013 7.95139e-015
lhumerus -25.5697 -1.73053 80.228
lradius 37.8444
lwrist -1.53601
lhand -16.2595 26.7968
lfingers 7.12502
lthumb 9.94984 56.5416
rfemur -26.1082 -7.38384 18.1792
rtibia 24.1475
rfoot 0.114872 -11.0415
rtoes 11.8946
lfemur 16.6749 -7.57607 -22.6226
ltibia 3.49861e-014
lfoot -6.8929 6.63415
ltoes -21.6547
4922
root -11.7811 17.7067 7.0593 -1621.21 33.2402 536.921
lowerback 12.234 -0.217347 -3.72622
upperback 1.34382 -0.562143 1.88315
thorax -5.39273 -0.127093 4.18159
lowerneck -18.719 -6.99031 -10.739
upperneck 26.2024 -8.81739 9.81513
head 12.8092 -3.4912 4.15555
rclavicle 6.97734e-014 -3.18055e-015
rhumerus -34.6693 -12.7621 -77.1405
rradius 27.4594
rwrist 6.69431
rhand -16.6036 7.4735
rfingers 7.12502
rthumb 9.6178 -22.287
lclavicle 6.97734e-014 -3.18055e-015
lhumerus -25.3687 -2.05356 80.2147
lradius 37.9883
lwrist -1.515
lhand -16.6304 26.7276
lfingers 7.12502
lthumb 9.59192 56.4892
rfemur -25.9627 -7.57329 18.6091
rtibia 24.3752
rfoot 0.0421548 -11.0749
rtoes 11.3171
lfemur 17.0629 -7.69997 -22.4671
ltibia -3.18055e-014
lfoot -6.61734 6.81746
ltoes -21.8438
4923
root -11.6923 17.7188 6.9933 -1621.19 33.7151 536.914
lowerback 12.271 -0.165565 -3.83575
upperback 1.3102 -0.511341 1.89205
thorax -5.45285 -0.0983778 4.24634
lowerneck -18.8236 -6.99615 -10.711
upperneck 26.2574 -8.83762 9.83521
head 12.8552 -3.49173 4.15522
rclavicle 2.32578e-014 0
rhumerus -34.9266 -12.8891 -77.043
rradius 27.268
rwrist 6.80787
rhand -16.3776 7.50435
rfingers 7.12502
rthumb 9.83586 -22.2459
lclavicle 2.32578e-014 0
lhumerus -25.3141 -2.05688 80.2784
lradius 38.0963
lwrist -1.58691
lhand -16.8938 26.516
lfingers 7.12502
lthumb 9.33778 56.2892
rfemur -25.9322 -7.69568 18.8792
rtibia 24.5756
rfoot 0.0254276 -10.7322
rtoes 9.26246
lfemur 17.4375 -7.78734 -22.4543
ltibia 1.27222e-014
lfoot -6.30598 6.93811
ltoes -22.0336
